<?xml version="1.0" encoding="UTF-8"?>
<svg id="Layer_1" xmlns="http://www.w3.org/2000/svg" version="1.1" viewBox="0 0 624.7 229.9">
  <!-- Generator: Adobe Illustrator 29.8.5, SVG Export Plug-In . SVG Version: 2.1.1 Build 2)  -->
  <defs>
    <style>
      .st0 {
        fill: #d85f77;
      }

      .st1 {
        fill: #ff2b00;
      }

      .st2 {
        fill: #632b1e;
      }

      .st3 {
        fill: #fff;
      }

      .st4 {
        fill: #6c3634;
      }
    </style>
  </defs>
  <path class="st2" d="M511.7,205.2c-.2,0-.4,0-.6.1-38.8,8-77.6,16.1-116.4,24.1-2.7.6-5.8,1-7.9-.8-1-.8-1.5-2-2.1-3.2-8.9-18.8-17.8-37.6-26.6-56.4-3.4-7.1,1.5-10,8.2-9.9h142.7c2.8,0,6.1.2,7.9,2.4,1.3,1.7,1.4,3.9,1.4,6,0,9.7,0,19.3,0,29,0,2.1,0,4.3-1.3,5.9-1.2,1.6-3.3,2.2-5.3,2.6"/>
  <g>
    <path class="st2" d="M164.9,39V9.2h-11.8V2.2h32.1v6.9h-11.8v29.9h-8.5Z"/>
    <path class="st2" d="M206.4,10.3c2.2,0,4.3.4,6,1.3,1.8.9,3.2,2.3,4.2,4.1,1,1.8,1.5,4.2,1.5,7.1v16.2h-8.2v-14.9c0-2.3-.5-4-1.5-5.1-1-1.1-2.4-1.6-4.2-1.6s-2.5.3-3.5.8c-1,.5-1.8,1.4-2.4,2.5-.6,1.1-.9,2.6-.9,4.3v14h-8.2V0h8.2v18.6l-1.8-2.4c1-1.9,2.5-3.3,4.4-4.4,1.9-1,4.1-1.5,6.5-1.5Z"/>
    <path class="st2" d="M239.8,39.5c-3.2,0-6.1-.6-8.5-1.9-2.4-1.3-4.3-3-5.7-5.2-1.3-2.2-2-4.7-2-7.5s.7-5.4,2-7.6c1.3-2.2,3.1-3.9,5.4-5.2,2.3-1.2,4.9-1.9,7.7-1.9s5.3.6,7.5,1.8c2.2,1.2,4,2.9,5.3,5.1,1.3,2.2,1.9,4.8,1.9,7.9s0,.7,0,1.1c0,.4,0,.8-.1,1.1h-23v-4.8h18.7l-3.2,1.4c0-1.5-.3-2.8-.9-3.8-.6-1.1-1.4-1.9-2.5-2.6-1.1-.6-2.3-.9-3.7-.9s-2.6.3-3.7.9c-1.1.6-1.9,1.5-2.5,2.6-.6,1.1-.9,2.4-.9,3.9v1.3c0,1.5.3,2.9,1,4.1.7,1.2,1.6,2.1,2.9,2.7,1.2.6,2.7.9,4.4.9s2.8-.2,4-.7c1.1-.5,2.2-1.1,3.1-2.1l4.4,4.7c-1.3,1.5-2.9,2.6-4.9,3.4-2,.8-4.2,1.2-6.8,1.2Z"/>
  </g>
  <path class="st2" d="M423.8,51.6c-2.9-2.2-7.2-3.1-11-3.5,1.9-6.2-.1-13.4-4.9-17.7-.9-.8-2-1.6-3.2-1.3-1,.2-1.8,1.1-2.4,1.9-2.7,3.7-4.9,7.6-6.7,11.8-.7,1.6-1.3,3.3-2.5,4.4-1.2,1.2-3.3,1.7-4.7.6,2.8-3.7,5.5-7.5,6.9-11.9,1.4-4.4,1.2-9.5-1.7-13.1-3.6-4.6-10.3-5.4-16.1-5.3-19.2.3-38.3,6.2-54.5,16.6-14.4,9.2-34.7,25.6-23.5,44.5,4.7,7.9,12.9,13.1,21.1,17.2,8.2,4.2,16.9,7.7,23.8,13.8,1.5,1.3,2.9,2.8,3.3,4.7.6,2.8-1.3,5.5-3.3,7.6-11.1,11.5-28.8,16.3-44.1,11.8,10.7-2.1,21.3-4.5,31.9-7.3,3.7-.9,8.3-3.6,7-7.2-13.9-1-27.9,1-40.9,6-3,1.1-6.1,2.5-8,5.1-3.6,4.6-2.3,11.8,1.7,16.1,4,4.3,10,6.2,15.8,7,20.7,2.9,42.6-6.5,54.8-23.4,4.1-5.7,7.3-12.9,5.7-19.8-1.8-8-9.2-13.3-16.1-17.8-6.7-4.4-13.4-8.8-20.1-13.2-3.1-2-6.3-4.3-7.5-7.7-1.9-5.7,2.5-11.4,7-15.4,12.5-11.1,27.8-18.8,44.1-22.2,2.4,6.4-3.1,13.3-9.3,16.1s-13.4,2.9-19.8,5.1c-4.5,1.5-9.2,5-9,9.8.1,3.6,3.2,6.5,6.5,8,8.4,3.7,18.6.3,25.4-5.8,2.9-2.6,5.4-5.7,8.7-7.9,3.3-2.2,7.7-3.2,11.1-1.3-7.4,22.1-14.9,44.9-13.8,68.2.2,4.4.8,8.9,3,12.7,2.2,3.8,6.5,6.6,10.8,6.1,2.5-.3,4.8-1.8,6.9-3.3,5.7-3.9,11.1-8.2,16.3-12.8,1.2-1,2.3-2.1,3.1-3.4,2.5-4.1.9-9.3-.8-13.8-6.8,9.3-15.4,17.1-25.3,23-1.9-10.7.4-21.7,3.3-32.2,3.4-12.2,7.5-24.1,11.6-36,1-3,2.4-6.4,5.5-7.4,2.9-1,5.9.7,8.8,1.7,2.9,1,6.8,1.1,8.1-1.7.5-1.1.4-2.4,0-3.5-.5-1.7-1.6-2.9-2.9-3.9"/>
  <path class="st2" d="M351.9,66.8c-3.2,1.1-5.3-3.2-2.5-5.1,2.6-1.8,6-2.8,10.7-2.2-1.5,3.4-4.5,6.1-8.2,7.3"/>
  <path class="st2" d="M547.9,70.2c-1.3-1.8-3.6-2.7-5.8-2.7-4,0-7.3,2.5-10.1,5-5.1,4.5-9.5,9.6-13.3,15.2-2.8-5.6,5.1-12.2.9-18.3-1.8-2.6-5.1-3.7-8.3-3.2-5.5,1-9,5.8-10.7,10.9-1.5,4.5-2,9.2-3.3,13.8-2,7.1-6.1,13.7-11.7,18.6l-6.6,13.6c3.6-2.6,7.3-4.9,11.5-6,0,0,.2,0,.2,0,0,8.3,1.1,18.2,8.5,22,1.4.7,3,1.1,4.3.4,1.6-.7,2.2-2.6,2.7-4.2,4.7-15.7,11.9-30.6,21.1-44.1,0,5.8.8,11.6,2.6,17.1.7,2.1,1.7,4.4,3.8,5,2.5.8,5.2-1.3,6-3.8.9-2.5.6-5.2.5-7.9,0-5.8,1.5-11.7,4.4-16.8,2.7-4.6,6.5-10.1,3.4-14.5"/>
  <path class="st2" d="M72.7,22.9c.4,1.5.5,3.2.3,4.7-.3,3.4-1.6,6.5-2.9,9.7-12.2,30.6-22.1,62.1-29.5,94.3-.2.9-.4,1.9,0,2.8.4.9,1.4,1.5,2.3,1.9,11.6,5.9,23.5,11.6,36.4,13.7,12.8,2,26.9-.1,36.8-8.6.6-.5,1.3-1.1,2.1-1.3,2.1-.5,3.8,1.8,4.4,3.9,2.5,8.1-.8,17.7-7.7,22.6-4,2.8-8.8,4.1-13.7,4.5-8.4.7-16.9-1.2-24.9-3.8-13-4.1-25.5-10-36.9-17.5.1,2.9-.3,6.6-3.1,7.3-.8.2-1.8,0-2.6-.2-3.9-1.3-6.2-5.4-7.5-9.3-1.4-3.9-2.3-8.1-5-11.2-1.5-1.7-3.5-3-5.1-4.7-4.4-4.8-4.2-13,.4-17.6,2.4,2,4.9,4.1,7.3,6.1,1.6-2.1,2.1-4.8,2.6-7.3,5.4-29.6,14.4-58.5,26.7-86-8.1,2.9-13.9,9.8-19.2,16.4-4.6,5.6-9.2,11.3-12.2,17.9-3,6.6-4.4,14.3-2.1,21.2-8-.5-16.8-4.5-19-12.2-1.8-6.4,1.6-13,5.5-18.4C17.5,35.4,39.2,16,60.4,15.2c3.5-.1,7.3.6,9.8,3.1,1.3,1.3,2.1,2.9,2.5,4.6"/>
  <path class="st2" d="M580.1,147.8c-3,7.1-6.6,14-11.5,19.9-3.8,4.6-8.5,8.7-14.1,10.7-5.6,2.1-12.2,1.9-17.2-1.4-5-3.3-7.8-10-5.8-15.6,7.3,4.1,17,1,22.9-4.9,6-5.9,9.2-13.9,12.2-21.8-.7,1.8-12.1,3.5-14,3.3-3.6-.5-7-3.9-8.5-7.1-1.4-3-1.9-6.3-1.9-9.6-.2-8.6,1.9-17.1,4.5-25.3,3.2-9.8,7.1-19.3,11.9-28.4.4-.9,1-1.8,1.9-2,.8-.2,1.5.2,2.2.5,4.4,2.2,9.5,5.3,9.9,10.2.3,2.9-1.2,5.7-2.6,8.3-5,9.5-8.9,19.5-11.7,29.9-.6,2.3-1,5.3,1,6.7,2.3,1.7,5.5-.5,7.5-2.6,8.4-9.4,14.4-21.1,17-33.4,1.2-5.5,1.7-11.2,3.7-16.5.3-.8.7-1.7,1.5-2.2.7-.4,1.5-.4,2.3-.3,2.4.3,4.8,1.1,6.9,2.4,1.7,1.1,3.2,2.6,3.6,4.6.2,1.1,0,2.2-.2,3.2-3.9,19.9-9.9,39.3-16.6,58.4-1.5,4.3-3,8.6-4.8,12.8"/>
  <path class="st2" d="M235.5,66.6c3.9-.4,7.9.5,10.8,2.9,4.4,3.7,5.7,10.2,4.3,15.7-1.4,5.6-5,10.3-8.9,14.5-6.5,7.1-15.2,13.4-24.8,12.7-1.9,5.3,0,12.2,5.1,14.5,5.1,2.3,11.1-.6,15.2-4.5,7.3-7,11-17,17.7-24.4,2.3-2.6,5.7-5,9.1-4.2-6.5,13.4-13.1,27-23.8,37.4-4,3.9-8.7,7.3-14.1,8.4-4.6.9-9.5,0-13.8-2-5.1-2.3-9.8-6.3-11.7-11.6-1.7-4.6-1.2-9.8-.2-14.7,3.4-16.8,13.6-38.7,31.4-44.1,1.2-.4,2.5-.6,3.7-.7M236.1,80.7c-5.5,0-14.6,18.4-17.4,24.7,7.4,6.7,25.3-24.8,17.4-24.7"/>
  <path class="st4" d="M281.4,134.5c-4.3,5-24.6,9.4-26.5,2-2.1-8.1,20.8-4.7,26.5-2"/>
  <path class="st4" d="M282.2,129.1c-3.8,4-14.1-6.1-12.2-10.5,3.8-4.2,14.9,5.8,12.2,10.5"/>
  <path class="st4" d="M275.8,155.7c-6.3-2.7.9-13.6,6.3-15.6,2.1,3.5.2,14.9-6.3,15.6"/>
  <path class="st4" d="M605.5,62.9c-.5-6.6,10.7-24.1,17.3-20.2,7.2,4.2-11.4,18-17.3,20.2"/>
  <path class="st4" d="M608.7,67.3c-.1-5.5,14.3-5.6,16.1-1.2.2,5.7-14.7,6.5-16.1,1.2"/>
  <path class="st4" d="M594.4,43.9c6.4-2.6,9,10.2,6.5,15.5-4-1-10.7-10.4-6.5-15.5"/>
  <path class="st0" d="M617.3,143.1c0,.4-.4.8-.8.8s-.8-.4-.8-.8.4-.8.8-.8.8.4.8.8"/>
  <g>
    <path class="st3" d="M405.3,204.6c-2.4,0-4.6-.4-6.6-1.2-2-.8-3.8-1.9-5.3-3.3-1.5-1.4-2.7-3.1-3.5-5.1-.8-1.9-1.3-4.1-1.3-6.4s.4-4.5,1.3-6.4c.8-1.9,2-3.6,3.5-5.1,1.5-1.4,3.3-2.5,5.3-3.3,2-.8,4.2-1.2,6.7-1.2s5.1.5,7.2,1.4c2.2.9,4,2.3,5.4,4.1l-4.6,4.2c-1.1-1.2-2.2-2.1-3.5-2.7-1.3-.6-2.7-.9-4.2-.9s-2.8.2-4,.7c-1.2.5-2.2,1.1-3.1,2-.9.9-1.6,1.9-2,3.1-.5,1.2-.7,2.5-.7,4s.2,2.8.7,4c.5,1.2,1.2,2.2,2,3.1.9.9,1.9,1.6,3.1,2,1.2.5,2.5.7,4,.7s2.9-.3,4.2-.9c1.3-.6,2.5-1.5,3.5-2.8l4.6,4.2c-1.5,1.8-3.3,3.2-5.4,4.1s-4.6,1.4-7.3,1.4Z"/>
    <path class="st3" d="M429.6,204.5c-1.9,0-3.4-.3-4.8-.9-1.3-.6-2.3-1.5-3-2.6s-1.1-2.3-1.1-3.7.3-2.6,1-3.7,1.8-1.9,3.3-2.5c1.5-.6,3.5-.9,5.9-.9h6.3v4h-5.6c-1.6,0-2.7.3-3.3.8-.6.5-.9,1.2-.9,2s.3,1.6,1,2.1c.7.5,1.6.8,2.8.8s2.2-.3,3.1-.8c.9-.5,1.6-1.3,2-2.4l1.1,3.2c-.5,1.5-1.4,2.7-2.7,3.5-1.3.8-3,1.2-5.1,1.2ZM436.8,204.1v-4.6l-.4-1v-8.3c0-1.5-.4-2.6-1.3-3.4-.9-.8-2.3-1.2-4.1-1.2s-2.5.2-3.7.6c-1.2.4-2.3.9-3.1,1.6l-2.5-4.8c1.3-.9,2.8-1.6,4.7-2.1,1.8-.5,3.7-.7,5.6-.7,3.6,0,6.4.9,8.4,2.6,2,1.7,3,4.4,3,8v13.5h-6.4Z"/>
    <path class="st3" d="M446.6,186.2v-5.3h16.4v5.3h-16.4ZM450.3,204.1v-24.2c0-2.7.8-4.8,2.4-6.4,1.6-1.6,3.8-2.4,6.8-2.4s2,.1,2.9.3,1.7.5,2.4,1l-1.8,5c-.4-.3-.8-.5-1.3-.6-.5-.1-1-.2-1.5-.2-1,0-1.8.3-2.3.9-.5.6-.8,1.4-.8,2.6v2.2l.2,3v19h-6.9Z"/>
    <path class="st3" d="M478,204.5c-2.7,0-5.1-.5-7.1-1.6s-3.6-2.5-4.7-4.3c-1.1-1.8-1.7-3.9-1.7-6.3s.6-4.5,1.7-6.3c1.1-1.8,2.6-3.3,4.5-4.3,1.9-1,4.1-1.6,6.5-1.6s4.4.5,6.3,1.5c1.9,1,3.3,2.4,4.4,4.2,1.1,1.8,1.6,4,1.6,6.6s0,.6,0,.9c0,.3,0,.7,0,.9h-19.3v-4h15.6l-2.6,1.2c0-1.2-.2-2.3-.7-3.2-.5-.9-1.2-1.6-2.1-2.1-.9-.5-1.9-.8-3.1-.8s-2.2.3-3.1.8c-.9.5-1.6,1.2-2.1,2.2-.5.9-.7,2-.7,3.3v1.1c0,1.3.3,2.4.9,3.4.6,1,1.4,1.7,2.4,2.2,1,.5,2.3.8,3.7.8s2.4-.2,3.3-.6c1-.4,1.8-1,2.6-1.7l3.7,4c-1.1,1.2-2.5,2.2-4.1,2.8-1.6.7-3.5,1-5.7,1Z"/>
  </g>
  <path class="st4" d="M104.1,137.5c.8.1,1.5.2,2.3.3-.8,0-1.5,0-2.3-.3"/>
  <path class="st2" d="M204.9,64.9c-2.3-2.7-7.6-7.1-12-5.1-1.1,7.4-19.5,72.2-29.1,66.7.6-16.9,5.8-32.2,9.4-47.9,1.9-8.5-14.4-15.6-16.5-11.8-6.8,12.6-3,37.8-14.4,40.7l-5.4-.4-13.4,16.2-3.1,3.4-.2.2,3.8,1h0c5.2-.3,19.5-8.7,24.1-13.2,1.7,7.1,1.5,13.8,5.8,19.5,18.7,25.2,46.2-43.2,50.1-55,1.5-4.5,4.6-9.9.9-14.3"/>
  <path class="st1" d="M138.2,70.3c-2.3-1.9-4.9-3.4-7.8-4.3-7-2.4-15-1.5-21.6,2,7.2,1.1,12.9,7.2,15.1,14.1,2.2,6.9,1.4,14.5-.5,21.5-1.6,5.7-3.9,11.3-7.9,15.7-4,4.3-9.9,7.2-15.8,6.4-7.9-1-13.8-8.3-15.4-16-1.7-7.7.1-15.8,2.5-23.3,1.3-4.1,3.6-8.8,7.9-9.1,2.7-.2,5.3,1.7,6.5,4.1,1.2,2.4,1.3,5.3,1,8-.6,4.6-2.3,9-2.7,13.6-.3,4.6,1.2,9.8,5.3,11.9-3.7-10.7,4.9-22.1,3.4-33.3-.9-7-6.1-13.3-12.7-15.9-15.5-6.1-32.2,6.7-32.5,22.7-.1,8.4,3.3,16.4,8,23.4,7,10.6,16.8,19.4,28.1,25.1,2,1,4.1,2,6.4,1.8,2-.1,3.7-1.1,5.4-2.1,12.8-7.5,24.3-17.8,31.2-31,3.9-7.5,6.1-16.3,3.6-24.3-1.3-4.3-4-8-7.4-10.9"/>
  <path class="st1" d="M478.1,82.1c-2.3-1.9-4.9-3.4-7.7-4.4-7-2.4-15-1.6-21.6,1.9,7.2,1.1,12.9,7.3,15.1,14.2,2.2,6.9,1.3,14.5-.6,21.5-1.6,5.7-3.9,11.3-8,15.6-4,4.3-10,7.2-15.8,6.4-7.8-1-13.7-8.4-15.4-16.1-1.6-7.7.2-15.8,2.6-23.3,1.3-4.1,3.6-8.7,7.9-9,2.7-.2,5.3,1.7,6.5,4.1,1.2,2.4,1.3,5.3,1,8-.6,4.6-2.4,8.9-2.7,13.5-.4,4.6,1.2,9.8,5.3,11.9-3.7-10.7,5-22.1,3.5-33.3-.9-7.1-6-13.3-12.6-15.9-15.5-6.2-32.3,6.5-32.6,22.6-.2,8.4,3.3,16.4,7.9,23.4,7,10.6,16.7,19.4,28,25.3,2,1,4.1,2,6.3,1.8,2-.1,3.7-1.1,5.4-2.1,12.8-7.5,24.4-17.7,31.3-30.9,3.9-7.5,6.2-16.3,3.7-24.3-1.3-4.3-4-8-7.4-10.9"/>
</svg>