<svg width="22" height="22" viewBox="0 0 22 22" fill="none" xmlns="http://www.w3.org/2000/svg">
<path d="M14.7774 17.1499C14.8389 17.2114 14.8877 17.2844 14.921 17.3647C14.9542 17.4451 14.9714 17.5312 14.9714 17.6181C14.9714 17.7051 14.9542 17.7912 14.921 17.8715C14.8877 17.9519 14.8389 18.0248 14.7774 18.0863C14.7159 18.1478 14.6429 18.1966 14.5626 18.2299C14.4823 18.2631 14.3962 18.2803 14.3092 18.2803C14.2223 18.2803 14.1362 18.2631 14.0558 18.2299C13.9755 18.1966 13.9025 18.1478 13.841 18.0863L7.22338 11.4687C7.16185 11.4072 7.11304 11.3342 7.07974 11.2539C7.04644 11.1736 7.0293 11.0874 7.0293 11.0005C7.0293 10.9135 7.04644 10.8274 7.07974 10.7471C7.11304 10.6667 7.16185 10.5937 7.22338 10.5323L13.841 3.91464C13.9652 3.79046 14.1336 3.7207 14.3092 3.7207C14.4848 3.7207 14.6533 3.79046 14.7774 3.91464C14.9016 4.03881 14.9714 4.20723 14.9714 4.38284C14.9714 4.55844 14.9016 4.72686 14.7774 4.85103L8.62715 11.0005L14.7774 17.1499Z" fill="#0F0F10"/>
</svg>
