<svg width="22" height="22" viewBox="0 0 22 22" fill="none" xmlns="http://www.w3.org/2000/svg">
<path d="M15.4384 11.4687L8.82076 18.0863C8.75928 18.1478 8.68628 18.1966 8.60595 18.2299C8.52562 18.2631 8.43951 18.2803 8.35256 18.2803C8.26561 18.2803 8.17951 18.2631 8.09917 18.2299C8.01884 18.1966 7.94585 18.1478 7.88436 18.0863C7.82288 18.0248 7.77411 17.9519 7.74083 17.8715C7.70756 17.7912 7.69043 17.7051 7.69043 17.6181C7.69043 17.5312 7.70756 17.4451 7.74083 17.3647C7.77411 17.2844 7.82288 17.2114 7.88436 17.1499L14.0346 11.0005L7.88436 4.85103C7.76019 4.72686 7.69043 4.55844 7.69043 4.38284C7.69043 4.20723 7.76019 4.03881 7.88436 3.91464C8.00854 3.79046 8.17695 3.7207 8.35256 3.7207C8.52817 3.7207 8.69659 3.79046 8.82076 3.91464L15.4384 10.5323C15.4999 10.5937 15.5487 10.6667 15.5821 10.7471C15.6154 10.8274 15.6325 10.9135 15.6325 11.0005C15.6325 11.0874 15.6154 11.1736 15.5821 11.2539C15.5487 11.3342 15.4999 11.4072 15.4384 11.4687Z" fill="#0F0F10"/>
</svg>
