<svg width="21" height="22" viewBox="0 0 21 22" fill="none" xmlns="http://www.w3.org/2000/svg">
<path d="M3.29348 4.657L0.0504761 1.415L1.46548 0L4.70748 3.243H19.9495C20.1053 3.24299 20.2591 3.27941 20.3983 3.34937C20.5376 3.41932 20.6586 3.52086 20.7517 3.6459C20.8448 3.77093 20.9073 3.91598 20.9344 4.06949C20.9614 4.22299 20.9522 4.38069 20.9075 4.53L18.5075 12.53C18.4457 12.7361 18.3192 12.9168 18.1466 13.0452C17.974 13.1737 17.7646 13.243 17.5495 13.243H5.29348V15.243H16.2935V17.243H4.29348C4.02826 17.243 3.77391 17.1376 3.58637 16.9501C3.39883 16.7626 3.29348 16.5082 3.29348 16.243V4.657ZM4.79348 21.243C4.39565 21.243 4.01412 21.085 3.73282 20.8037C3.45151 20.5224 3.29348 20.1408 3.29348 19.743C3.29348 19.3452 3.45151 18.9636 3.73282 18.6823C4.01412 18.401 4.39565 18.243 4.79348 18.243C5.1913 18.243 5.57283 18.401 5.85414 18.6823C6.13544 18.9636 6.29348 19.3452 6.29348 19.743C6.29348 20.1408 6.13544 20.5224 5.85414 20.8037C5.57283 21.085 5.1913 21.243 4.79348 21.243ZM16.7935 21.243C16.3957 21.243 16.0141 21.085 15.7328 20.8037C15.4515 20.5224 15.2935 20.1408 15.2935 19.743C15.2935 19.3452 15.4515 18.9636 15.7328 18.6823C16.0141 18.401 16.3957 18.243 16.7935 18.243C17.1913 18.243 17.5728 18.401 17.8541 18.6823C18.1354 18.9636 18.2935 19.3452 18.2935 19.743C18.2935 20.1408 18.1354 20.5224 17.8541 20.8037C17.5728 21.085 17.1913 21.243 16.7935 21.243Z" fill="white"/>
</svg>
