<svg width="24" height="24" viewBox="0 0 24 24" fill="none" xmlns="http://www.w3.org/2000/svg">
<path d="M0 2.25C0 1.83579 0.335786 1.5 0.75 1.5H3C3.34415 1.5 3.64414 1.73422 3.72761 2.0681L4.33558 4.5H21.75C21.9731 4.5 22.1846 4.59934 22.3271 4.77102C22.4696 4.94271 22.5283 5.16892 22.4872 5.38822L20.2372 17.3882C20.1706 17.7429 19.8609 18 19.5 18H18H7.5H6C5.63909 18 5.32936 17.7429 5.26285 17.3882L3.01697 5.4102L2.41442 3H0.75C0.335786 3 0 2.66421 0 2.25ZM4.65369 6L6.62244 16.5H18.8776L20.8463 6H4.65369ZM7.5 18C5.84315 18 4.5 19.3431 4.5 21C4.5 22.6569 5.84315 24 7.5 24C9.15685 24 10.5 22.6569 10.5 21C10.5 19.3431 9.15685 18 7.5 18ZM18 18C16.3431 18 15 19.3431 15 21C15 22.6569 16.3431 24 18 24C19.6569 24 21 22.6569 21 21C21 19.3431 19.6569 18 18 18ZM7.5 19.5C8.32843 19.5 9 20.1716 9 21C9 21.8284 8.32843 22.5 7.5 22.5C6.67157 22.5 6 21.8284 6 21C6 20.1716 6.67157 19.5 7.5 19.5ZM18 19.5C18.8284 19.5 19.5 20.1716 19.5 21C19.5 21.8284 18.8284 22.5 18 22.5C17.1716 22.5 16.5 21.8284 16.5 21C16.5 20.1716 17.1716 19.5 18 19.5Z" fill="black"/>
</svg>
