<svg width="32" height="32" viewBox="0 0 32 32" fill="none" xmlns="http://www.w3.org/2000/svg">
<path fill-rule="evenodd" clip-rule="evenodd" d="M20 25C20 25.5523 19.5523 26 19 26L3 26C2.44772 26 2 25.5523 2 25L2 7C2 6.44771 2.44772 6 3 6L19 6C19.5523 6 20 6.44772 20 7L20 11C20 11.5523 20.4477 12 21 12C21.5523 12 22 11.5523 22 11L22 7C22 5.34315 20.6569 4 19 4L3 4C1.34315 4 9.90363e-07 5.34314 9.17939e-07 7L1.31134e-07 25C5.87107e-08 26.6569 1.34315 28 3 28L19 28C20.6569 28 22 26.6569 22 25L22 21C22 20.4477 21.5523 20 21 20C20.4477 20 20 20.4477 20 21L20 25Z" fill="black"/>
<path fill-rule="evenodd" clip-rule="evenodd" d="M31.7071 16.7071C32.0976 16.3166 32.0976 15.6834 31.7071 15.2929L25.7071 9.29289C25.3166 8.90237 24.6834 8.90237 24.2929 9.29289C23.9024 9.68342 23.9024 10.3166 24.2929 10.7071L28.5858 15L11 15C10.4477 15 10 15.4477 10 16C10 16.5523 10.4477 17 11 17L28.5858 17L24.2929 21.2929C23.9024 21.6834 23.9024 22.3166 24.2929 22.7071C24.6834 23.0976 25.3166 23.0976 25.7071 22.7071L31.7071 16.7071Z" fill="black"/>
</svg>
